<?xml version="1.0" encoding="UTF-8"?>
<svg version="1.1" xmlns="http://www.w3.org/2000/svg" width="32" height="32">
<path d="M0 0 C5.61 0 11.22 0 17 0 C17.33 1.65 17.66 3.3 18 5 C21.96 5 25.92 5 30 5 C30.33 6.65 30.66 8.3 31 10 C30.34 10 29.68 10 29 10 C28.67 9.34 28.34 8.68 28 8 C25.6859378 7.26924352 23.35171131 6.59861742 21 6 C21.33 8.31 21.66 10.62 22 13 C22.66 13 23.32 13 24 13 C24 12.01 24 11.02 24 10 C24.66 10 25.32 10 26 10 C26 12.97 26 15.94 26 19 C25.34 19 24.68 19 24 19 C24 18.01 24 17.02 24 16 C23.34 16 22.68 16 22 16 C21.67 18.31 21.34 20.62 21 23 C21.99 23.33 22.98 23.66 24 24 C20.37 24 16.74 24 13 24 C13.66 23.67 14.32 23.34 15 23 C15 17.39 15 11.78 15 6 C14.34 6 13.68 6 13 6 C13 8.64 13 11.28 13 14 C12.34 14 11.68 14 11 14 C11 13.01 11 12.02 11 11 C10.34 11 9.68 11 9 11 C8.67 13.31 8.34 15.62 8 18 C8.99 18.33 9.98 18.66 11 19 C7.37 19 3.74 19 0 19 C0.66 18.67 1.32 18.34 2 18 C2 12.39 2 6.78 2 1 C1.34 0.67 0.68 0.34 0 0 Z M8 1 C8 3.64 8 6.28 8 9 C8.99 8.67 9.98 8.34 11 8 C11 7.01 11 6.02 11 5 C12.65 5 14.3 5 16 5 C15.67 4.01 15.34 3.02 15 2 C12.69 1.67 10.38 1.34 8 1 Z " fill="#000000" transform="translate(1,4)"/>
<path d="M0 0 C0.99 0 1.98 0 3 0 C3 0.99 3 1.98 3 3 C2.01 3 1.02 3 0 3 C0 2.01 0 1.02 0 0 Z " fill="#000000" transform="translate(29,25)"/>
</svg>
